<svg xmlns="http://www.w3.org/2000/svg" xmlns:xlink="http://www.w3.org/1999/xlink" version="1.1" id="Layer_1" x="0px" y="0px" style="enable-background:new 0 0 612 792;" xml:space="preserve" viewBox="140.4 358 324.6 74.7">
<style type="text/css">
	.st0{fill:#E12046;}
	.st1{fill:#26C1DB;}
</style>
<g>
	<polygon class="st0" points="379.2,358.5 379.2,431.7 379.2,431.7 396.2,431.7 396.2,358.5  "/>
	<path class="st0" d="M435,414.5l-15.8-15.8v-3.2v-17.6l15.8,15.8l22.7-22.7c-9.5-12.7-23.6-12.7-31.6-12.7h-12.7l0,0h-11.6v73.3   l0,0h17h8.6c27.8,0,37.6-16.9,37.6-36.9c0-3.2-0.3-6.4-0.9-9.6L435,414.5z"/>
	<path class="st1" d="M359.1,381.3h-0.2v-4.9h-9.6v24.8c-1-15.1-13.5-26.3-27.7-26.3c-13.6,0-25.1,9.7-27.5,23.3   c-2.3-13.6-14.1-23.3-27.4-23.3c-14.4,0-26.3,10.8-27.8,25.5v-1.8c-0.1-6.1-1.3-10.4-3.4-14c-3.9-6.1-10.8-9.8-19.3-9.8   c-2.2,0-10.3,0-15.3,7.3h-0.2V358h-10.2v47.8c-1.3-4.5-4.4-8.6-8.8-11.6c-1.1-0.8-5-3.3-13.6-5.1l-0.3-0.1c-7.1-1.3-11.2-4-11.2-4   c-2.4-1.6-3.9-4.5-3.9-7.5c0-5.1,5.8-9.5,12.6-9.5c3.1,0,6.1,0.9,8.4,2.4c2.7,1.8,4.3,4.4,4.3,7h9.9c0-6-3.1-11.5-8.6-15.2   c-4-2.7-8.8-4.1-13.9-4.1c-12.4,0-22.5,8.7-22.5,19.3c0,6.4,3.1,12.3,8.2,15.7c0.6,0.4,5.8,3.7,14.9,5.5h0.3   c6.7,1.4,9.4,3.2,9.4,3.2l0,0l0.4,0.3c3.4,2.3,5.3,5.5,5.3,8.9c0,6.5-7,11.9-15.6,11.9c-3.8,0-7.4-1.1-10.2-3l0,0   c-3.4-2.3-5.3-5.5-5.3-8.9h-9.9c0,6.7,3.5,12.9,9.7,17.1l2.8-4.1l-2.8,4.1c4.5,3,10,4.6,15.7,4.6c11.8,0,21.8-6.9,24.6-16.3v14.3   h10.2V401c0-10.9,5.8-16.9,14.4-16.9c13.6,0,13.6,12.8,13.6,17v29.6h10.2v-24.4c1.5,14.1,13.2,25.7,27.6,25.7   c8.5,0,21-4.4,26.2-18.5h-10.2c-2.5,4.7-8,9.2-15.6,9.2c-6.9,0-15.4-4.3-17.9-14.9h45c2.1,13.4,13.5,24.2,27.4,24.2   c8.5,0,21-4.4,26.2-18.5h-10.2c-2.5,4.7-8,9.2-15.6,9.2c-6.9,0-15.4-4.3-17.9-14.9H349c0.1-0.4,0.2-1.7,0.2-3.1v25.9h10.2v-29.8   c0-7.8,2.8-11.9,6-13.7c2.5-1.3,5.8-2,7.4-2v-10.5C370.4,375,363.4,375.2,359.1,381.3z M249,400.2c0.5-8,7.8-16,17.6-16   c9.9,0,17.1,8,17.6,16H249z M303.9,400.2c0.5-8,7.8-16,17.6-16c9.9,0,17.1,8,17.6,16H303.9z"/>
</g>
</svg>